<?xml version="1.0" standalone="no"?>
<svg xmlns:xlink="http://www.w3.org/1999/xlink" id="wave" style="transform:rotate(180deg); transition: 0.3s" viewBox="0 0 1440 100" version="1.1" xmlns="http://www.w3.org/2000/svg"><defs><linearGradient id="sw-gradient-0" x1="0" x2="0" y1="1" y2="0"><stop stop-color="rgba(236, 248, 229, 1)" offset="0%"/><stop stop-color="rgba(236, 248, 229, 1)" offset="100%"/></linearGradient></defs><path style="transform:translate(0, 0px); opacity:1" fill="url(#sw-gradient-0)" d="M0,60L21.8,61.7C43.6,63,87,67,131,71.7C174.5,77,218,83,262,75C305.5,67,349,43,393,35C436.4,27,480,33,524,45C567.3,57,611,73,655,68.3C698.2,63,742,37,785,31.7C829.1,27,873,43,916,53.3C960,63,1004,67,1047,60C1090.9,53,1135,37,1178,33.3C1221.8,30,1265,40,1309,40C1352.7,40,1396,30,1440,21.7C1483.6,13,1527,7,1571,18.3C1614.5,30,1658,60,1702,66.7C1745.5,73,1789,57,1833,41.7C1876.4,27,1920,13,1964,8.3C2007.3,3,2051,7,2095,21.7C2138.2,37,2182,63,2225,66.7C2269.1,70,2313,50,2356,40C2400,30,2444,30,2487,36.7C2530.9,43,2575,57,2618,60C2661.8,63,2705,57,2749,58.3C2792.7,60,2836,70,2880,66.7C2923.6,63,2967,47,3011,41.7C3054.5,37,3098,43,3120,46.7L3141.8,50L3141.8,100L3120,100C3098.2,100,3055,100,3011,100C2967.3,100,2924,100,2880,100C2836.4,100,2793,100,2749,100C2705.5,100,2662,100,2618,100C2574.5,100,2531,100,2487,100C2443.6,100,2400,100,2356,100C2312.7,100,2269,100,2225,100C2181.8,100,2138,100,2095,100C2050.9,100,2007,100,1964,100C1920,100,1876,100,1833,100C1789.1,100,1745,100,1702,100C1658.2,100,1615,100,1571,100C1527.3,100,1484,100,1440,100C1396.4,100,1353,100,1309,100C1265.5,100,1222,100,1178,100C1134.5,100,1091,100,1047,100C1003.6,100,960,100,916,100C872.7,100,829,100,785,100C741.8,100,698,100,655,100C610.9,100,567,100,524,100C480,100,436,100,393,100C349.1,100,305,100,262,100C218.2,100,175,100,131,100C87.3,100,44,100,22,100L0,100Z"/></svg>